# xmcd
#
# Track frame offsets: 
#        150
#        9872
#        21897
#        38002
#        49495
#        60967
#        72337
#        85780
#        102937
#        114640
#        141480
#        152872
#        165087
#        175992
#        188755
#        198230
#        207165
#        221105
#
# Disc length: 3076 seconds
#
# Revision: 1
# Processed by: cddbd v1.5.2PL0 Copyright (c) Steve Scherf et al.
# Submitted via: ExactAudioCopy v1.1
#
DISCID=f30c0212
DTITLE=Various Artist - Ultra-Lounge - Volume 04 - Bachelor Pad Royal
DTITLE=e
DYEAR=1996
DGENRE=Pop
TTITLE0=Nelson Riddle and His Orchestra - The Theme From Route 66 (stere
TTITLE0=o)
TTITLE1=The John Buzon Trio - Caravan (stereo)
TTITLE2=Line Renaud (Jacqueline Enté) - Sexe (stereo)
TTITLE3=Lou Busch and His Orchestra - Cool (mono)
TTITLE4=Milt Buckner - The Beast (mono)
TTITLE5=Elliott Fisher - Theme From 'Our Man Flint' (stereo)
TTITLE6=Jack Fascinato - Spring, Sprang, Sprung (stereo)
TTITLE7=Alvino Rey and His Orchestra - Night Train (stereo)
TTITLE8=Martin Denny - Harlem Nocturne (stereo)
TTITLE9=Sam Butera - The Boulevard Of Broken Dreams - Fever (stereo)
TTITLE10=The Joe Bucci Trio - Topsy (stereo)
TTITLE11=Dave Pell - Like Young (stereo)
TTITLE12=Lou Busch and His Orchestra - Street Scene '58 (mono)
TTITLE13=Cy Coleman - Playboy's Theme (mono)
TTITLE14=Jimmie Haskell - A Shot In The Dark (mono)
TTITLE15=Spike Jones' New Band - Shangri-La (stereo)
TTITLE16=Julie London - Black Coffee (stereo)
TTITLE17=King Curtis - Melancholy Serenade (stereo)
EXTD=YEAR: 1996
EXTT0=
EXTT1=
EXTT2=
EXTT3=
EXTT4=
EXTT5=
EXTT6=
EXTT7=
EXTT8=
EXTT9=
EXTT10=
EXTT11=
EXTT12=
EXTT13=
EXTT14=
EXTT15=
EXTT16=
EXTT17=
PLAYORDER=
